<?xml version="1.0" encoding="UTF-8" standalone="no"?>
<svg width="39px" height="55px" viewBox="0 0 39 55" version="1.1" xmlns="http://www.w3.org/2000/svg" xmlns:xlink="http://www.w3.org/1999/xlink" xmlns:sketch="http://www.bohemiancoding.com/sketch/ns">
    <!-- Generator: Sketch 3.4.4 (17249) - http://www.bohemiancoding.com/sketch -->
    <title>MAP PIN</title>
    <desc>Created with Sketch.</desc>
    <defs></defs>
    <g id="Welcome" stroke="none" stroke-width="1" fill="none" fill-rule="evenodd" sketch:type="MSPage">
        <g id="Home-V2" sketch:type="MSArtboardGroup" transform="translate(-766.000000, -636.000000)" fill="#FFFFFF">
            <g id="About" sketch:type="MSLayerGroup" transform="translate(-1.000000, 504.000000)">
                <g id="MAP-PIN" transform="translate(767.000000, 131.751037)" sketch:type="MSShapeGroup">
                    <g id="Layer_1">
                        <path d="M18.288,53.9966639 C18.5856,54.460169 19.0832,54.7372644 19.6144,54.7372644 L19.6144,54.7372644 C20.1472,54.7372644 20.6448,54.4584896 20.9408,53.9966639 L36.0384,30.4553074 C37.8432,27.4341275 38.7984,23.9645568 38.7984,20.4194146 C38.7984,9.71177518 30.1856,0.999222935 19.5984,0.999222935 C9.0112,0.999222935 0.3984,9.71177518 0.3984,20.4194146 C0.3984,23.9695949 1.3568,27.4458831 3.1968,30.5157646 L18.288,53.9966639 L18.288,53.9966639 Z M19.6,4.35627612 C28.4224,4.35627612 35.6,11.5624368 35.6,20.4177352 C35.6,23.3297563 34.8144,26.1829996 33.3568,28.6231188 L19.6128,50.0518325 L5.8784,28.6802173 C4.3872,26.1913965 3.6,23.3347944 3.6,20.4177352 C3.6,11.5624368 10.7776,4.35627612 19.6,4.35627612 L19.6,4.35627612 Z" id="Shape"></path>
                        <path d="M19.6,29.5837163 C24.616,29.5837163 28.6976,25.4407197 28.6976,20.3472018 C28.6976,15.2536839 24.6176,11.1106873 19.6,11.1106873 C14.5824,11.1106873 10.5024,15.2536839 10.5024,20.3472018 C10.5024,25.4407197 14.584,29.5837163 19.6,29.5837163 L19.6,29.5837163 Z M19.6,14.4694198 C22.8512,14.4694198 25.4976,17.1060249 25.4976,20.3472018 C25.4976,23.5883787 22.8528,26.2249838 19.6,26.2249838 C16.3472,26.2249838 13.7024,23.5883787 13.7024,20.3472018 C13.7024,17.1060249 16.3488,14.4694198 19.6,14.4694198 L19.6,14.4694198 Z" id="Shape"></path>
                    </g>
                </g>
            </g>
        </g>
    </g>
</svg>