<?xml version="1.0" encoding="UTF-8" standalone="no"?>
<svg width="36px" height="51px" viewBox="0 0 36 51" version="1.1" xmlns="http://www.w3.org/2000/svg" xmlns:xlink="http://www.w3.org/1999/xlink" xmlns:sketch="http://www.bohemiancoding.com/sketch/ns">
    <!-- Generator: Sketch 3.4.4 (17249) - http://www.bohemiancoding.com/sketch -->
    <title>MICROPHONE</title>
    <desc>Created with Sketch.</desc>
    <defs></defs>
    <g id="Welcome" stroke="none" stroke-width="1" fill="none" fill-rule="evenodd" sketch:type="MSPage">
        <g id="Home-V2" sketch:type="MSArtboardGroup" transform="translate(-502.000000, -635.000000)" fill="#FFFFFF">
            <g id="About" sketch:type="MSLayerGroup" transform="translate(-1.000000, 504.000000)">
                <g id="MICROPHONE" transform="translate(503.000000, 131.751037)" sketch:type="MSShapeGroup">
                    <g id="Layer_1">
                        <path d="M1.5,14.6024066 C0.6705,14.6024066 0,15.2964285 0,16.1550283 C0,16.2264489 0,24.1106616 0.0015,24.166556 C0.1155,33.699653 7.3935,41.5326292 16.512,42.3120453 C16.5105,42.333782 16.5,42.3524134 16.5,42.3741501 L16.5,46.5817548 L9.681,46.5817548 C8.8515,46.5817548 8.181,47.2757767 8.181,48.1343765 C8.181,48.9929762 8.8515,49.6869981 9.681,49.6869981 L26.319,49.6869981 C27.1485,49.6869981 27.819,48.9929762 27.819,48.1343765 C27.819,47.2757767 27.1485,46.5817548 26.319,46.5817548 L19.5,46.5817548 L19.5,42.3741501 C19.5,42.3524134 19.4895,42.333782 19.488,42.3120453 C28.5705,41.5341818 35.8455,33.7353633 35.997,24.2457397 C35.9985,24.1510298 36,16.2512908 36,16.1550283 C36,15.2964285 35.3295,14.6024066 34.5,14.6024066 C33.6705,14.6024066 33,15.2964285 33,16.1550283 C33,16.2497382 32.9985,23.9786888 32.997,24.1945032 C32.865,32.5150026 26.1375,39.284433 18,39.284433 C9.8295,39.284433 3.1005,32.4855028 3.0015,24.1323983 C3,23.9057156 3,16.2248963 3,16.1550283 C3,15.2979811 2.3295,14.6024066 1.5,14.6024066 L1.5,14.6024066 Z" id="Shape"></path>
                        <path d="M28.35,24.0376884 L28.35,10.6199321 C28.35,4.76499585 23.706,0.00155262165 18,0.00155262165 C12.294,0.00155262165 7.65,4.76499585 7.65,10.6199321 L7.65,24.0376884 C7.65,29.8926247 12.294,34.6560679 18,34.6560679 C23.706,34.6560679 28.35,29.8926247 28.35,24.0376884 L28.35,24.0376884 Z M10.65,24.0376884 L10.65,10.6199321 C10.65,6.47753753 13.947,3.10679593 18,3.10679593 C22.053,3.10679593 25.35,6.47753753 25.35,10.6199321 L25.35,24.0376884 C25.35,28.180083 22.053,31.5508246 18,31.5508246 C13.947,31.5508246 10.65,28.180083 10.65,24.0376884 L10.65,24.0376884 Z" id="Shape"></path>
                    </g>
                </g>
            </g>
        </g>
    </g>
</svg>