<?xml version="1.0" encoding="UTF-8" standalone="no"?>
<svg width="39px" height="46px" viewBox="0 0 39 46" version="1.1" xmlns="http://www.w3.org/2000/svg" xmlns:xlink="http://www.w3.org/1999/xlink" xmlns:sketch="http://www.bohemiancoding.com/sketch/ns">
    <!-- Generator: Sketch 3.4.4 (17249) - http://www.bohemiancoding.com/sketch -->
    <title>SHARE</title>
    <desc>Created with Sketch.</desc>
    <defs></defs>
    <g id="Welcome" stroke="none" stroke-width="1" fill="none" fill-rule="evenodd" sketch:type="MSPage">
        <g id="Home-V2" sketch:type="MSArtboardGroup" transform="translate(-212.000000, -640.000000)" fill="#FFFFFF">
            <g id="About" sketch:type="MSLayerGroup" transform="translate(-1.000000, 504.000000)">
                <g id="SHARE" transform="translate(213.000000, 135.933610)" sketch:type="MSShapeGroup">
                    <g id="Layer_1">
                        <path d="M31.92,14.4769295 C35.6675862,14.4769295 38.7158621,11.3257412 38.7158621,7.45305922 C38.7158621,3.57895134 35.6675862,0.427763108 31.92,0.427763108 C28.1737931,0.427763108 25.1255172,3.57895134 25.1255172,7.45305922 C25.1255172,8.36419464 25.3062069,9.22827612 25.6137931,10.0281931 L12.1158621,18.1214711 C10.8841379,16.8381818 9.17931034,16.0411166 7.29793103,16.0411166 C3.55172414,16.0411166 0.503448276,19.1923048 0.503448276,23.0649868 C0.503448276,26.9390947 3.55172414,30.0902829 7.29793103,30.0902829 C9.20827586,30.0902829 10.9310345,29.2632742 12.1668966,27.9457639 L25.5517241,36.6664278 C25.2924138,37.4093097 25.1268966,38.1978197 25.1268966,39.0319578 C25.1268966,42.9046398 28.1751724,46.055828 31.9213793,46.055828 C35.6689655,46.055828 38.7172414,42.9046398 38.7172414,39.0319578 C38.7172414,35.1578499 35.6689655,32.0066616 31.9213793,32.0066616 C29.9737931,32.0066616 28.2275862,32.8693172 26.9875862,34.2310298 L13.6372414,25.5317541 C13.9186207,24.7603546 14.0924138,23.9347718 14.0924138,23.0635609 C14.0924138,22.1638325 13.9131034,21.3111581 13.6137931,20.5197963 L27.1241379,12.4193889 C28.3517241,13.6912712 30.0482759,14.4769295 31.92,14.4769295 L31.92,14.4769295 Z M31.92,34.8598416 C34.1462069,34.8598416 35.9572414,36.7320181 35.9572414,39.0333836 C35.9572414,41.3333233 34.1462069,43.2054998 31.92,43.2054998 C29.6951724,43.2054998 27.8841379,41.3333233 27.8841379,39.0333836 C27.8841379,38.2662618 28.0993103,37.556175 28.4496552,36.9387703 C28.4606897,36.9230856 28.4744828,36.9116786 28.4855172,36.8945681 C28.5006897,36.8703282 28.5006897,36.8418106 28.5144828,36.8175707 C29.2275862,35.6454998 30.4827586,34.8598416 31.92,34.8598416 L31.92,34.8598416 Z M7.29655172,27.2399547 C5.07172414,27.2399547 3.26068966,25.3677782 3.26068966,23.0664127 C3.26068966,20.766473 5.07172414,18.8942965 7.29655172,18.8942965 C8.61241379,18.8942965 9.77241379,19.5587552 10.5103448,20.569702 C10.5296552,20.6153301 10.5310345,20.6638099 10.5558621,20.7065862 C10.6206897,20.8235081 10.7006897,20.9247454 10.7903448,21.0145756 C11.1255172,21.6234251 11.3337931,22.3164014 11.3337931,23.0649868 C11.3337931,23.8834402 11.0965517,24.6434327 10.7006897,25.2879291 C10.697931,25.2922067 10.6937931,25.2936326 10.6910345,25.2979102 C10.6855172,25.3064655 10.6868966,25.3150207 10.6813793,25.323576 C9.96,26.4742588 8.71586207,27.2399547 7.29655172,27.2399547 L7.29655172,27.2399547 Z M31.92,3.28094304 C34.1462069,3.28094304 35.9572414,5.15311958 35.9572414,7.4544851 C35.9572414,9.75442475 34.1462069,11.6266013 31.92,11.6266013 C29.6951724,11.6266013 27.8841379,9.75442475 27.8841379,7.4544851 C27.8841379,5.1516937 29.6937931,3.28094304 31.92,3.28094304 L31.92,3.28094304 Z" id="Shape"></path>
                    </g>
                </g>
            </g>
        </g>
    </g>
</svg>